<svg width="103" height="48" viewBox="0 0 103 48" fill="none" xmlns="http://www.w3.org/2000/svg">
<path d="M23.058 37H2.52V8.986H23.058V15.076H9.744V19.738H22.764V25.87H9.744V30.91H23.058V37ZM23.5164 33.052L27.3384 27.634C29.3544 29.65 32.4624 31.33 36.2844 31.33C38.7624 31.33 40.2744 30.28 40.2744 28.936C40.2744 27.34 38.4684 26.71 35.4864 26.08C30.8664 25.156 24.3984 23.98 24.3984 17.344C24.3984 12.64 28.3884 8.566 35.5704 8.566C40.0644 8.566 43.9704 9.91 46.9524 12.472L43.0044 17.638C40.6524 15.706 37.5864 14.74 35.1084 14.74C32.7144 14.74 31.7904 15.706 31.7904 16.924C31.7904 18.394 33.5124 18.898 36.6204 19.486C41.2404 20.452 47.6244 21.796 47.6244 28.138C47.6244 33.766 43.4664 37.504 35.9484 37.504C30.2784 37.504 26.3304 35.74 23.5164 33.052ZM62.8071 37.504C54.4071 37.504 47.8551 31.624 47.8551 23.014C47.8551 14.362 54.4071 8.524 62.8071 8.524C69.7791 8.524 73.3911 12.346 75.2391 16.042L69.0231 18.982C68.0991 16.756 65.7051 14.908 62.8071 14.908C58.4391 14.908 55.2051 18.436 55.2051 23.014C55.2051 27.592 58.4391 31.12 62.8071 31.12C65.7051 31.12 68.0991 29.272 69.0231 27.046L75.2391 29.986C73.4331 33.598 69.7791 37.504 62.8071 37.504Z" fill="white"/>
<path d="M96 26.0891V29.7947H94.845C95.7112 30.5166 96.2888 31.9122 96.2888 33.4041C96.2888 35.1847 95.0856 37.3984 92.4628 37.3984C89.6475 37.3984 88.8053 35.1847 88.8053 33.4041C88.8053 31.8641 89.2866 30.4925 90.1528 29.7947H88.685C87.6744 29.7947 87.0006 30.6609 87.0006 32.1528C87.0006 33.3078 87.4337 34.5109 88.2278 35.4494L85.8937 36.7728C84.6184 35.2809 84.0891 33.2837 84.0891 31.5031C84.0891 28.7119 85.1237 26.0891 88.7331 26.0891H96ZM93.0162 29.7947H91.9816C91.4522 30.1797 91.1634 31.0459 91.1634 31.8641C91.1634 32.8506 91.5966 33.7169 92.5109 33.7169C93.4253 33.7169 93.8584 32.8506 93.8584 31.8641C93.8584 31.0459 93.5697 30.1797 93.0162 29.7947ZM96 18.1937V21.8993H79.9503V18.1937H96ZM96 10.3021V14.0077H79.9503V10.3021H96Z" fill="white"/>
</svg>
