<svg width="87" height="12" viewBox="0 0 87 12" fill="none" xmlns="http://www.w3.org/2000/svg">
<path d="M12.3873 11H9.39533L8.85133 9.384H4.41933L3.87533 11H0.883326L4.89933 0.327999H8.35533L12.3873 11ZM8.13133 7.064L6.62733 2.728L5.13933 7.064H8.13133ZM19.312 11.192C16.112 11.192 13.616 8.952 13.616 5.672C13.616 2.376 16.112 0.151999 19.312 0.151999C21.968 0.151999 23.344 1.608 24.048 3.016L21.68 4.136C21.328 3.288 20.416 2.584 19.312 2.584C17.648 2.584 16.416 3.928 16.416 5.672C16.416 7.416 17.648 8.76 19.312 8.76C20.416 8.76 21.328 8.056 21.68 7.208L24.048 8.328C23.36 9.704 21.968 11.192 19.312 11.192ZM31.8741 11H29.1221V2.728H26.1301V0.327999H34.8501V2.728H31.8741V11ZM40.412 11H37.66V0.327999H40.412V11ZM50.1678 11H46.7118L42.6958 0.327999H45.8158L48.4398 8.024L51.0798 0.327999H54.1998L50.1678 11ZM66.153 11H63.161L62.617 9.384H58.185L57.641 11H54.649L58.665 0.327999H62.121L66.153 11ZM61.897 7.064L60.393 2.728L58.905 7.064H61.897ZM72.5928 11H69.8408V2.728H66.8488V0.327999H75.5688V2.728H72.5928V11ZM86.2027 11H78.3787V0.327999H86.2027V2.648H81.1307V4.424H86.0907V6.76H81.1307V8.68H86.2027V11Z" fill="white"/>
</svg>
