<svg width="110" height="12" viewBox="0 0 110 12" fill="none" xmlns="http://www.w3.org/2000/svg">
<path fill-rule="evenodd" clip-rule="evenodd" d="M0.88501 11.2153H5.38101C7.97119 11.2153 10.0046 9.99617 10.7897 7.90737L5.35 9.26731L4.446 8.81531H3.63701V8.41081L0.88501 7.03481V11.2153ZM5.36501 0.54331C8.72018 0.54331 11.1341 2.55353 11.141 5.85706L8.24938 6.57996C8.29943 6.35174 8.32501 6.11416 8.32501 5.87131C8.32501 4.22331 7.33301 2.94331 5.38101 2.94331H3.63701V6.63581L0.88501 5.25981V0.54331H5.36501ZM14.01 11.2153H21.834V8.89531H16.762V6.97531H21.722V6.1859L19.35 5.76731L14.01 7.1023V11.2153ZM14.01 5.13981L16.762 4.45181V2.86331H21.834V0.54331H14.01V5.13981ZM32.3079 11.2153H35.2999L34.2339 8.39388L25.4415 6.84228L23.7959 11.2153H26.7879L27.3319 9.59931H31.7639L32.3079 11.2153ZM28.6448 5.55168L26.0964 5.10197L27.8119 0.54331H31.2679L33.4827 6.40543L30.562 5.89002L29.5399 2.94331L28.6448 5.55168ZM37.2049 8.62075C38.1571 10.3485 40.0244 11.4073 42.2245 11.4073C44.8805 11.4073 46.2725 9.91931 46.9605 8.54331L44.5925 7.42331C44.2405 8.27131 43.3285 8.97531 42.2245 8.97531C41.4056 8.97531 40.6913 8.64978 40.177 8.11126L37.2049 8.62075ZM36.593 6.78279L39.3531 6.30963C39.3369 6.17192 39.3285 6.03098 39.3285 5.88731C39.3285 4.14331 40.5605 2.79931 42.2245 2.79931C43.3285 2.79931 44.2405 3.50331 44.5925 4.35131L46.9605 3.23131C46.2565 1.82331 44.8805 0.36731 42.2245 0.36731C39.0245 0.36731 36.5285 2.59131 36.5285 5.88731C36.5285 6.19531 36.5505 6.49413 36.593 6.78279ZM52.0346 11.2153H54.7866V5.89739L53.85 5.76731L52.0346 6.07852V11.2153ZM53.6 3.86731L54.7866 4.03211V2.94331H57.7626V0.54331H49.0426V2.94331H52.0346V4.13567L53.6 3.86731ZM60.5725 11.2153H63.3245V7.08321L60.5725 6.70099V11.2153ZM60.5725 4.83571L63.3245 5.21793V0.54331H60.5725V4.83571ZM65.6084 0.54331L67.5905 5.81043L70.6701 6.23815L68.7284 0.54331H65.6084ZM69.6244 11.2153L68.3311 7.77857L71.3377 8.19615L71.3524 8.23931L71.3659 8.20006L71.85 8.26731L74.453 7.58231L73.0804 11.2153H69.6244ZM75.2777 5.39951L77.1124 0.54331H73.9924L72.0337 6.25318L75.2777 5.39951ZM86.0735 11.2153H89.0655L87.4843 7.03026L84.5108 6.41805L84.8095 7.27931H81.8175L82.2713 5.95698L81.35 5.76731L79.4206 6.27505L77.5615 11.2153H80.5535L81.0975 9.59931H85.5295L86.0735 11.2153ZM83.8203 4.42736L86.727 5.02581L85.0335 0.54331H81.5775L80.2416 4.09321L81.1 3.86731L82.8638 4.23044L83.3055 2.94331L83.8203 4.42736ZM92.7534 11.2153H95.5054V8.68165L92.7534 8.11507V11.2153ZM92.7534 6.26653L95.5054 6.83312V2.94331H98.4814V0.54331H89.7614V2.94331H92.7534V6.26653ZM101.291 11.2153H109.115V8.89531H104.043V8.28576L101.291 8.76024V11.2153ZM101.291 6.81714L109.003 5.48748V4.63931H104.043V2.86331H109.115V0.54331H101.291V6.81714Z" fill="white"/>
</svg>
